<svg width="178" height="94" viewBox="0 0 178 94" fill="none" xmlns="http://www.w3.org/2000/svg">
<path d="M156.692 75.0792C156.539 75.0792 156.394 75.1188 156.259 75.1996C156.121 75.2805 156.028 75.3957 155.982 75.5488L154.2 80.9476L152.719 77.2343C152.664 77.0898 152.575 76.9763 152.454 76.8903C152.335 76.806 152.198 76.7682 152.047 76.7768C151.893 76.7699 151.758 76.8078 151.637 76.8903C151.517 76.9746 151.424 77.0898 151.36 77.2343L149.797 80.9906L148.001 75.5488C147.955 75.3957 147.864 75.2805 147.731 75.1996C147.599 75.1205 147.456 75.0792 147.305 75.0792C147.121 75.0792 146.94 75.1498 146.768 75.2908C146.594 75.4318 146.508 75.621 146.508 75.8635C146.508 75.9358 146.522 76.0149 146.545 76.1043L148.916 83.0872C148.964 83.2316 149.052 83.3417 149.181 83.4174C149.308 83.4931 149.437 83.5361 149.566 83.5447C149.702 83.5447 149.836 83.5051 149.969 83.4243C150.101 83.3434 150.205 83.2282 150.277 83.0751L151.997 79.1898L153.708 83.0751C153.78 83.2282 153.883 83.3434 154.016 83.4243C154.148 83.5034 154.282 83.5447 154.418 83.5447C154.554 83.5378 154.685 83.4948 154.81 83.4174C154.934 83.3417 155.02 83.2316 155.068 83.0872L157.44 76.1043C157.464 76.0166 157.476 75.9358 157.476 75.8635C157.476 75.6227 157.392 75.4318 157.225 75.2908C157.058 75.1498 156.876 75.0792 156.692 75.0792Z" fill="white"/>
<path d="M161.953 75.5488C161.898 75.3957 161.807 75.277 161.683 75.1928C161.559 75.1085 161.425 75.0655 161.281 75.0655C161.128 75.05 160.985 75.0861 160.852 75.1738C160.722 75.2633 160.622 75.3871 160.558 75.5471L157.561 82.7466C157.537 82.8257 157.524 82.9031 157.524 82.9754C157.524 83.1525 157.576 83.3004 157.683 83.4208C157.788 83.5412 157.946 83.6014 158.163 83.6014C158.3 83.6014 158.426 83.5601 158.543 83.4741C158.658 83.3899 158.746 83.2712 158.801 83.1181L159.425 81.6493H163.016L163.642 83.1061C163.706 83.2592 163.797 83.3795 163.912 83.4673C164.027 83.555 164.16 83.5997 164.304 83.5997C164.473 83.5997 164.628 83.5343 164.769 83.4071C164.91 83.2798 164.979 83.1061 164.979 82.8894C164.979 82.8017 164.958 82.7053 164.92 82.6004L161.953 75.5488ZM160.013 80.2699L161.212 77.4527L162.421 80.2699H160.013Z" fill="white"/>
<path d="M171.043 75.0913C170.739 75.0913 170.517 75.2443 170.381 75.5488L168.164 81.2365L165.744 75.5488C165.608 75.2357 165.388 75.0792 165.082 75.0792C164.929 75.0792 164.769 75.1412 164.6 75.265C164.432 75.3888 164.349 75.5677 164.349 75.8016C164.349 75.8498 164.353 75.8996 164.361 75.9512C164.37 76.0028 164.385 76.0544 164.409 76.1009L167.383 83.0837C167.447 83.2282 167.54 83.3383 167.66 83.4139C167.78 83.4896 167.906 83.5326 168.033 83.5412C168.169 83.5412 168.303 83.5034 168.436 83.4277C168.568 83.352 168.671 83.2334 168.743 83.0717L171.717 76.1129C171.764 76.0011 171.789 75.8928 171.789 75.7878C171.789 75.5866 171.714 75.4198 171.566 75.2873C171.42 75.1584 171.244 75.0913 171.043 75.0913Z" fill="white"/>
<path d="M174.66 70.2377H173.852V54.0361C173.852 53.3533 173.702 52.7031 173.458 52.0995C173.441 51.9206 173.38 51.752 173.269 51.6213C173.2 51.482 173.109 51.3513 173.026 51.2154C172.974 51.1311 172.931 51.0451 172.875 50.9643C172.701 50.7166 172.508 50.4776 172.293 50.2609L166.308 44.2756C165.847 43.8146 165.302 43.4431 164.76 43.2126L164.753 43.2109C164.746 43.2075 164.74 43.2023 164.733 43.2006C164.726 43.1972 164.717 43.2006 164.71 43.1972C164.026 42.8824 163.296 42.719 162.535 42.719H140.692C139.059 42.719 137.733 44.0451 137.733 45.6773V89.6383C137.733 91.2705 139.059 92.5966 140.692 92.5966H170.893C172.524 92.5966 173.852 91.2705 173.852 89.6383V89.1567H174.66C176.112 89.1567 177.291 87.9752 177.291 86.5253V72.8691C177.291 71.4175 176.11 70.2377 174.66 70.2377ZM170.916 51.3186H166.112C165.639 51.3186 165.252 50.9333 165.252 50.4587V45.6549L170.916 51.3186ZM172.132 89.6383C172.132 90.3211 171.576 90.8767 170.893 90.8767H140.692C140.011 90.8767 139.453 90.3211 139.453 89.6383V45.6773C139.453 44.9945 140.009 44.4389 140.692 44.4389H162.535C162.88 44.4389 163.207 44.5043 163.532 44.6023V50.4587C163.532 51.881 164.69 53.0385 166.112 53.0385H171.97C172.066 53.3584 172.132 53.6869 172.132 54.0361V70.2377H158.252C158.004 70.2377 157.776 70.1448 157.605 69.9745L156.919 69.2866C156.424 68.7912 155.762 68.5178 155.055 68.5178H143.805C142.353 68.5178 141.173 69.6976 141.173 71.1492V86.5253C141.173 87.9769 142.355 89.1567 143.805 89.1567H172.132V89.6383ZM175.572 86.5253C175.572 87.0275 175.162 87.4368 174.66 87.4368H143.805C143.302 87.4368 142.893 87.0275 142.893 86.5253V71.1492C142.893 70.647 143.302 70.2377 143.805 70.2377H155.053C155.301 70.2377 155.529 70.3306 155.7 70.5008L156.386 71.1888C156.881 71.6841 157.543 71.9576 158.25 71.9576H174.66C175.162 71.9576 175.572 72.3669 175.572 72.8691V86.5253Z" fill="white"/>
<path d="M143.753 66.7978C145.175 66.7978 146.333 65.6403 146.333 64.218V59.6258L156.652 55.2039V60.0781C156.382 59.9801 156.095 59.9182 155.793 59.9182C154.37 59.9182 153.213 61.0757 153.213 62.4981C153.213 63.9204 154.37 65.0779 155.793 65.0779C157.215 65.0779 158.372 63.9204 158.372 62.4981V53.8968C158.372 53.8968 158.372 53.8933 158.372 53.8899V48.7387C158.372 48.4498 158.228 48.1798 157.985 48.0215C157.745 47.8633 157.44 47.8341 157.172 47.9493L145.132 53.109C144.818 53.2432 144.613 53.5545 144.613 53.8985V59.0599C144.613 59.0599 144.613 59.0634 144.613 59.0668V61.7981C144.343 61.7 144.056 61.6381 143.753 61.6381C142.331 61.6381 141.173 62.7956 141.173 64.218C141.173 65.6403 142.331 66.7978 143.753 66.7978ZM155.793 63.358C155.32 63.358 154.933 62.9728 154.933 62.4981C154.933 62.0234 155.32 61.6381 155.793 61.6381C156.265 61.6381 156.652 62.0234 156.652 62.4981C156.652 62.9728 156.265 63.358 155.793 63.358ZM156.652 50.0424V53.3309L146.333 57.7528V54.4661L156.652 50.0424ZM143.753 63.358C144.226 63.358 144.613 63.7433 144.613 64.218C144.613 64.6927 144.226 65.0779 143.753 65.0779C143.28 65.0779 142.893 64.6927 142.893 64.218C142.893 63.7433 143.28 63.358 143.753 63.358Z" fill="white"/>
<path d="M164.392 68.5178C165.814 68.5178 166.972 67.3603 166.972 65.9379V56.5334C167.299 56.6039 167.675 56.7432 167.987 57.0236C168.455 57.4467 168.692 58.1295 168.692 59.0582C168.692 59.5329 169.077 59.9182 169.552 59.9182C170.027 59.9182 170.412 59.5329 170.412 59.0582C170.412 57.6221 169.984 56.5076 169.137 55.7457C167.847 54.5847 166.095 54.7533 166.023 54.7636C165.584 54.8083 165.252 55.1781 165.252 55.6184V63.5162C164.982 63.4199 164.695 63.358 164.392 63.358C162.97 63.358 161.812 64.5155 161.812 65.9379C161.812 67.3603 162.97 68.5178 164.392 68.5178ZM164.392 65.0779C164.865 65.0779 165.252 65.4632 165.252 65.9379C165.252 66.4126 164.865 66.7978 164.392 66.7978C163.919 66.7978 163.532 66.4126 163.532 65.9379C163.532 65.4632 163.919 65.0779 164.392 65.0779Z" fill="white"/>
<path fill-rule="evenodd" clip-rule="evenodd" d="M175.572 86.5253C175.572 87.0275 175.162 87.4368 174.66 87.4368H143.805C143.302 87.4368 142.893 87.0275 142.893 86.5253V71.1492C142.893 70.647 143.302 70.2377 143.805 70.2377H155.053C155.301 70.2377 155.529 70.3306 155.7 70.5008L156.386 71.1888C156.881 71.6841 157.543 71.9576 158.25 71.9576H174.66C175.162 71.9576 175.572 72.3669 175.572 72.8691V86.5253ZM156.259 75.1996C156.394 75.1188 156.539 75.0792 156.692 75.0792C156.876 75.0792 157.058 75.1498 157.225 75.2908C157.392 75.4318 157.476 75.6227 157.476 75.8635C157.476 75.9358 157.464 76.0166 157.44 76.1043L155.068 83.0872C155.02 83.2316 154.934 83.3417 154.81 83.4174C154.685 83.4948 154.554 83.5378 154.418 83.5447C154.282 83.5447 154.148 83.5034 154.016 83.4243C153.883 83.3434 153.78 83.2282 153.708 83.0751L151.997 79.1898L150.277 83.0751C150.205 83.2282 150.101 83.3434 149.969 83.4243C149.836 83.5051 149.702 83.5447 149.566 83.5447C149.437 83.5361 149.308 83.4931 149.181 83.4174C149.052 83.3417 148.964 83.2316 148.916 83.0872L146.545 76.1043C146.522 76.0149 146.508 75.9358 146.508 75.8635C146.508 75.621 146.594 75.4318 146.768 75.2908C146.94 75.1498 147.121 75.0792 147.305 75.0792C147.456 75.0792 147.599 75.1205 147.731 75.1996C147.864 75.2805 147.955 75.3957 148.001 75.5488L149.797 80.9906L151.36 77.2343C151.424 77.0898 151.517 76.9746 151.637 76.8903C151.758 76.8078 151.893 76.7699 152.047 76.7768C152.198 76.7682 152.335 76.806 152.454 76.8903C152.575 76.9763 152.664 77.0898 152.719 77.2343L154.2 80.9476L155.982 75.5488C156.028 75.3957 156.121 75.2805 156.259 75.1996ZM161.683 75.1928C161.807 75.277 161.898 75.3957 161.953 75.5488L164.92 82.6004C164.958 82.7053 164.979 82.8017 164.979 82.8894C164.979 83.1061 164.91 83.2798 164.769 83.4071C164.628 83.5343 164.473 83.5997 164.304 83.5997C164.16 83.5997 164.027 83.555 163.912 83.4673C163.797 83.3795 163.706 83.2592 163.642 83.1061L163.016 81.6493H159.425L158.801 83.1181C158.746 83.2712 158.658 83.3899 158.543 83.4741C158.426 83.5601 158.3 83.6014 158.163 83.6014C157.946 83.6014 157.788 83.5412 157.683 83.4208C157.576 83.3004 157.524 83.1525 157.524 82.9754C157.524 82.9031 157.537 82.8257 157.561 82.7466L160.558 75.5471C160.622 75.3871 160.722 75.2633 160.852 75.1738C160.985 75.0861 161.128 75.05 161.281 75.0655C161.425 75.0655 161.559 75.1085 161.683 75.1928ZM170.381 75.5488C170.517 75.2443 170.739 75.0913 171.043 75.0913C171.244 75.0913 171.42 75.1584 171.566 75.2873C171.714 75.4198 171.789 75.5866 171.789 75.7878C171.789 75.8928 171.764 76.0011 171.717 76.1129L168.743 83.0717C168.671 83.2334 168.568 83.352 168.436 83.4277C168.303 83.5034 168.169 83.5412 168.033 83.5412C167.906 83.5326 167.78 83.4896 167.66 83.4139C167.54 83.3383 167.447 83.2282 167.383 83.0837L164.409 76.1009C164.385 76.0544 164.37 76.0028 164.361 75.9512C164.353 75.8996 164.349 75.8498 164.349 75.8016C164.349 75.5677 164.432 75.3888 164.6 75.265C164.769 75.1412 164.929 75.0792 165.082 75.0792C165.388 75.0792 165.608 75.2357 165.744 75.5488L168.164 81.2365L170.381 75.5488Z" fill="#FF0000"/>
<path d="M160.013 80.2699L161.212 77.4527L162.421 80.2699H160.013Z" fill="#FF0000"/>
<path d="M86.8209 32.7056C86.5756 32.7056 86.3758 32.8151 86.2199 33.0339L83.4691 37.1072L80.799 33.0339C80.7341 32.9367 80.6378 32.8568 80.5099 32.796C80.382 32.7352 80.2628 32.7039 80.1472 32.7039C79.9352 32.7039 79.753 32.7769 79.6005 32.9228C79.4499 33.0687 79.3745 33.2424 79.3745 33.4456V40.4856C79.3745 40.6958 79.4411 40.8729 79.5708 41.0136C79.7004 41.156 79.8686 41.2273 80.0736 41.2273C80.2874 41.2273 80.4573 41.156 80.5887 41.0136C80.7201 40.8712 80.7849 40.6958 80.7849 40.4856V35.4779L82.8086 38.6496C82.8822 38.7382 82.975 38.8163 83.0854 38.8806C83.1958 38.9466 83.3044 38.9744 83.4113 38.9657C83.5252 38.9727 83.6373 38.9449 83.7477 38.8806C83.8581 38.8163 83.951 38.7382 84.0245 38.6496L86.0482 35.5908V40.4856C86.0482 40.6958 86.12 40.8729 86.2637 41.0136C86.4074 41.1543 86.5931 41.2273 86.8209 41.2273C87.0486 41.2273 87.2344 41.156 87.3728 41.0136C87.5129 40.8712 87.5813 40.6958 87.5813 40.4856V33.4456C87.5813 33.2267 87.5042 33.0478 87.3482 32.9106C87.1923 32.7751 87.0171 32.7056 86.8209 32.7056Z" fill="white"/>
<path d="M94.1603 33.0826C93.7889 32.8394 93.3894 32.7178 92.9637 32.7178H90.1673C89.9536 32.7178 89.7766 32.789 89.633 32.9315C89.4893 33.0739 89.4175 33.2493 89.4175 33.4595V40.4873C89.4175 40.6975 89.484 40.8747 89.6137 41.0154C89.7433 41.1578 89.9115 41.229 90.1165 41.229C90.3303 41.229 90.5002 41.1578 90.6317 41.0154C90.7631 40.8729 90.8279 40.6975 90.8279 40.4873V38.1893H92.9619C93.3877 38.1893 93.7854 38.066 94.1586 37.8193C94.53 37.5709 94.8314 37.2409 95.0609 36.8275C95.2887 36.4141 95.4043 35.9573 95.4043 35.4535C95.4043 34.9429 95.2904 34.4808 95.0609 34.0674C94.8331 33.654 94.5335 33.3275 94.1603 33.0826ZM93.7871 36.1049C93.689 36.3116 93.5664 36.4801 93.4192 36.6104C93.272 36.7406 93.1214 36.8049 92.9654 36.8049H90.8314V34.1178H92.9654C93.1214 34.1178 93.272 34.1821 93.4192 34.3071C93.5664 34.4322 93.689 34.5972 93.7871 34.7987C93.8853 35.0002 93.9343 35.2208 93.9343 35.4553C93.9343 35.6811 93.8853 35.8982 93.7871 36.1049Z" fill="white"/>
<path d="M100.699 36.2022C100.363 35.9694 99.965 35.8548 99.5147 35.8409L101.17 34.031C101.262 33.9424 101.332 33.8486 101.386 33.7513C101.438 33.654 101.467 33.5533 101.467 33.4473C101.467 33.2372 101.402 33.0617 101.276 32.9245C101.149 32.7855 100.958 32.7178 100.706 32.7178H96.9532C96.7569 32.7178 96.5922 32.7803 96.4626 32.9054C96.3329 33.0305 96.2663 33.1868 96.2663 33.3744C96.2663 33.5689 96.3312 33.7322 96.4626 33.8607C96.594 33.991 96.7569 34.0553 96.9532 34.0553H99.3798L97.4805 36.1101C97.3912 36.2161 97.3229 36.3134 97.2791 36.4019C97.2335 36.4905 97.2107 36.5913 97.2107 36.7059C97.2107 36.8848 97.2615 37.0377 97.3632 37.1679C97.4665 37.2982 97.6102 37.3625 97.7994 37.3625C97.9466 37.3625 98.0763 37.3451 98.1866 37.3086C98.297 37.2722 98.4109 37.2374 98.53 37.2044C98.6492 37.1714 98.7981 37.1558 98.9768 37.1558C99.2134 37.1558 99.4376 37.2096 99.6461 37.3139C99.8546 37.4198 100.021 37.5727 100.149 37.7759C100.277 37.9791 100.34 38.2344 100.34 38.5419C100.34 38.8667 100.266 39.1429 100.119 39.3739C99.972 39.6049 99.7863 39.7821 99.5603 39.9089C99.336 40.034 99.096 40.0965 98.8437 40.0965C98.5896 40.0965 98.3671 40.0565 98.1744 39.9749C97.9834 39.895 97.8169 39.8012 97.6785 39.6953C97.5716 39.6223 97.4753 39.5737 97.3894 39.5493C97.3036 39.525 97.223 39.5129 97.1494 39.5129C96.9444 39.5129 96.7762 39.5962 96.6395 39.763C96.5046 39.9297 96.4381 40.1052 96.4381 40.291C96.4381 40.397 96.4696 40.5082 96.5292 40.6245C96.5905 40.7426 96.7114 40.8503 96.8918 40.9476C97.1056 41.0692 97.3579 41.1665 97.6522 41.2394C97.9466 41.3124 98.2444 41.3489 98.5476 41.3489C99.2011 41.3489 99.774 41.2325 100.265 40.9962C100.755 40.7618 101.135 40.4248 101.405 39.9871C101.675 39.5493 101.81 39.03 101.81 38.4307C101.81 37.9774 101.714 37.5536 101.521 37.161C101.328 36.7684 101.053 36.4488 100.699 36.2022Z" fill="white"/>
<path d="M106.094 27.7917H105.27V11.4294C105.27 10.7416 105.12 10.0884 104.871 9.48051C104.855 9.29639 104.79 9.12616 104.676 8.99241C104.606 8.85172 104.513 8.71971 104.429 8.58422C104.377 8.49911 104.333 8.41226 104.275 8.32889C104.1 8.0805 103.905 7.84253 103.686 7.62541L103.681 7.61846L97.5839 1.57378C97.1144 1.10827 96.5607 0.733081 96.007 0.500326C96.0035 0.498589 95.9983 0.496852 95.9983 0.496852C95.9913 0.493378 95.986 0.489904 95.979 0.48643C95.972 0.482956 95.9632 0.48643 95.9562 0.482956C95.2607 0.165089 94.516 7.62939e-05 93.7416 7.62939e-05H71.4901C69.8274 7.62939e-05 68.4766 1.33929 68.4766 2.98768V47.3849C68.4766 49.0332 69.8274 50.3725 71.4901 50.3725H102.257C103.918 50.3725 105.27 49.0332 105.27 47.3849V46.8985H106.094C107.573 46.8985 108.774 45.7052 108.774 44.2409V30.4493C108.774 28.9833 107.571 27.7917 106.094 27.7917ZM102.279 8.68497H97.3859C96.9024 8.68497 96.5099 8.29589 96.5099 7.81648V2.9651L102.279 8.68497ZM103.518 47.3849C103.518 48.0744 102.952 48.6355 102.257 48.6355H71.4901C70.7946 48.6355 70.2286 48.0744 70.2286 47.3849V2.98768C70.2286 2.2981 70.7946 1.73705 71.4901 1.73705H93.7416C94.0938 1.73705 94.4267 1.80306 94.7578 1.90207V7.81648C94.7578 9.25296 95.937 10.4219 97.3859 10.4219H103.354C103.452 10.745 103.518 11.0768 103.518 11.4294V27.7917H89.3789C89.1266 27.7917 88.8936 27.6962 88.7201 27.526L88.0193 26.8312C87.5147 26.3309 86.8419 26.0565 86.1218 26.0565H74.6614C73.1827 26.0565 71.9807 27.2481 71.9807 28.7141V44.2427C71.9807 45.7087 73.1844 46.9002 74.6614 46.9002H103.518V47.3849ZM107.022 44.2409C107.022 44.7481 106.605 45.1615 106.094 45.1615H74.6614C74.1498 45.1615 73.7328 44.7481 73.7328 44.2409V28.7123C73.7328 28.2051 74.1498 27.7917 74.6614 27.7917H86.12C86.3723 27.7917 86.6054 27.8873 86.7788 28.0575L87.4797 28.7523C87.9843 29.2525 88.6571 29.527 89.3772 29.527H106.094C106.605 29.527 107.022 29.9404 107.022 30.4476V44.2409Z" fill="white"/>
<path d="M74.6089 24.3178C76.0578 24.3178 77.237 23.1488 77.237 21.7123V17.0746L87.7495 12.6088V17.5314C87.4744 17.4324 87.1818 17.3699 86.8734 17.3699C85.4245 17.3699 84.2453 18.5388 84.2453 19.9753C84.2453 21.4118 85.4245 22.5808 86.8734 22.5808C88.3224 22.5808 89.5016 21.4118 89.5016 19.9753V6.0795C89.5016 5.78769 89.3544 5.51498 89.1073 5.35518C88.8603 5.19538 88.5484 5.16585 88.2804 5.28223L76.0158 10.4932C75.6934 10.6286 75.4849 10.943 75.4849 11.2904V19.2666C75.2098 19.1694 74.9172 19.1068 74.6089 19.1068C73.1599 19.1068 71.9807 20.2758 71.9807 21.7123C71.9807 23.1488 73.1599 24.3178 74.6089 24.3178ZM86.8734 20.8438C86.3899 20.8438 85.9974 20.4547 85.9974 19.9753C85.9974 19.4959 86.3899 19.1068 86.8734 19.1068C87.357 19.1068 87.7495 19.4959 87.7495 19.9753C87.7495 20.4547 87.357 20.8438 86.8734 20.8438ZM87.7495 7.39613V10.7172L77.237 15.183V11.8636L87.7495 7.39613ZM74.6089 20.8438C75.0924 20.8438 75.4849 21.2329 75.4849 21.7123C75.4849 22.1917 75.0924 22.5808 74.6089 22.5808C74.1253 22.5808 73.7328 22.1917 73.7328 21.7123C73.7328 21.2329 74.1253 20.8438 74.6089 20.8438Z" fill="white"/>
<path d="M95.6338 26.0548C97.0828 26.0548 98.262 24.8858 98.262 23.4493V13.9515C98.5949 14.0227 98.9786 14.1634 99.2939 14.4465C99.7723 14.8738 100.014 15.5634 100.014 16.5014C100.014 16.9808 100.407 17.3699 100.89 17.3699C101.374 17.3699 101.766 16.9808 101.766 16.5014C101.766 15.051 101.328 13.9254 100.468 13.156C99.159 11.987 97.3719 12.1537 97.2948 12.1641C96.848 12.2093 96.5099 12.5827 96.5099 13.0274V21.0036C96.2348 20.9064 95.9422 20.8438 95.6338 20.8438C94.1849 20.8438 93.0057 22.0128 93.0057 23.4493C93.0057 24.8858 94.1849 26.0548 95.6338 26.0548ZM95.6338 22.5808C96.1174 22.5808 96.5099 22.9699 96.5099 23.4493C96.5099 23.9287 96.1174 24.3178 95.6338 24.3178C95.1503 24.3178 94.7578 23.9287 94.7578 23.4493C94.7578 22.9699 95.1503 22.5808 95.6338 22.5808Z" fill="white"/>
<path fill-rule="evenodd" clip-rule="evenodd" d="M107.022 44.2409C107.022 44.7481 106.605 45.1615 106.094 45.1615H74.6614C74.1498 45.1615 73.7328 44.7481 73.7328 44.2409V28.7123C73.7328 28.2051 74.1498 27.7917 74.6614 27.7917H86.12C86.3723 27.7917 86.6054 27.8873 86.7788 28.0575L87.4797 28.7523C87.9843 29.2525 88.6571 29.527 89.3772 29.527H106.094C106.605 29.527 107.022 29.9404 107.022 30.4476V44.2409ZM86.2199 33.0339C86.3758 32.8151 86.5756 32.7056 86.8209 32.7056C87.0171 32.7056 87.1923 32.7751 87.3482 32.9106C87.5042 33.0478 87.5813 33.2267 87.5813 33.4456V40.4856C87.5813 40.6958 87.5129 40.8712 87.3728 41.0136C87.2344 41.156 87.0486 41.2273 86.8209 41.2273C86.5931 41.2273 86.4074 41.1543 86.2637 41.0136C86.12 40.8729 86.0482 40.6958 86.0482 40.4856V35.5908L84.0245 38.6496C83.951 38.7382 83.8581 38.8163 83.7477 38.8806C83.6373 38.9449 83.5252 38.9727 83.4113 38.9657C83.3044 38.9744 83.1958 38.9466 83.0854 38.8806C82.975 38.8163 82.8822 38.7382 82.8086 38.6496L80.7849 35.4779V40.4856C80.7849 40.6958 80.7201 40.8712 80.5887 41.0136C80.4573 41.156 80.2874 41.2273 80.0736 41.2273C79.8686 41.2273 79.7004 41.156 79.5708 41.0136C79.4411 40.8729 79.3745 40.6958 79.3745 40.4856V33.4456C79.3745 33.2424 79.4499 33.0687 79.6005 32.9228C79.753 32.7769 79.9352 32.7039 80.1472 32.7039C80.2628 32.7039 80.382 32.7352 80.5099 32.796C80.6378 32.8568 80.7341 32.9367 80.799 33.0339L83.4691 37.1072L86.2199 33.0339ZM92.9637 32.7178C93.3894 32.7178 93.7889 32.8394 94.1603 33.0826C94.5335 33.3275 94.8331 33.654 95.0609 34.0674C95.2904 34.4808 95.4043 34.9429 95.4043 35.4535C95.4043 35.9573 95.2887 36.4141 95.0609 36.8275C94.8314 37.2409 94.53 37.5709 94.1586 37.8193C93.7854 38.066 93.3877 38.1893 92.9619 38.1893H90.8279V40.4873C90.8279 40.6975 90.7631 40.8729 90.6317 41.0154C90.5002 41.1578 90.3303 41.229 90.1165 41.229C89.9115 41.229 89.7433 41.1578 89.6137 41.0154C89.484 40.8747 89.4175 40.6975 89.4175 40.4873V33.4595C89.4175 33.2493 89.4893 33.0739 89.633 32.9315C89.7766 32.789 89.9536 32.7178 90.1673 32.7178H92.9637ZM99.5147 35.8409C99.965 35.8548 100.363 35.9694 100.699 36.2022C101.053 36.4488 101.328 36.7684 101.521 37.161C101.714 37.5536 101.81 37.9774 101.81 38.4307C101.81 39.03 101.675 39.5493 101.405 39.9871C101.135 40.4248 100.755 40.7618 100.265 40.9962C99.774 41.2325 99.2011 41.3489 98.5476 41.3489C98.2444 41.3489 97.9466 41.3124 97.6522 41.2394C97.3579 41.1665 97.1056 41.0692 96.8918 40.9476C96.7114 40.8503 96.5905 40.7426 96.5292 40.6245C96.4696 40.5082 96.4381 40.397 96.4381 40.291C96.4381 40.1052 96.5046 39.9297 96.6395 39.763C96.7762 39.5962 96.9444 39.5129 97.1494 39.5129C97.223 39.5129 97.3036 39.525 97.3894 39.5493C97.4753 39.5737 97.5716 39.6223 97.6785 39.6953C97.8169 39.8012 97.9834 39.895 98.1744 39.9749C98.3671 40.0565 98.5896 40.0965 98.8437 40.0965C99.096 40.0965 99.336 40.034 99.5603 39.9089C99.7863 39.7821 99.972 39.6049 100.119 39.3739C100.266 39.1429 100.34 38.8667 100.34 38.5419C100.34 38.2344 100.277 37.9791 100.149 37.7759C100.021 37.5727 99.8546 37.4198 99.6461 37.3139C99.4376 37.2096 99.2134 37.1558 98.9768 37.1558C98.7981 37.1558 98.6492 37.1714 98.53 37.2044C98.4109 37.2374 98.297 37.2722 98.1866 37.3086C98.0763 37.3451 97.9466 37.3625 97.7994 37.3625C97.6102 37.3625 97.4665 37.2982 97.3632 37.1679C97.2615 37.0377 97.2107 36.8848 97.2107 36.7059C97.2107 36.5913 97.2335 36.4905 97.2791 36.4019C97.3229 36.3134 97.3912 36.2161 97.4805 36.1101L99.3798 34.0553H96.9532C96.7569 34.0553 96.594 33.991 96.4626 33.8607C96.3312 33.7322 96.2663 33.5689 96.2663 33.3744C96.2663 33.1868 96.3329 33.0305 96.4626 32.9054C96.5922 32.7803 96.7569 32.7178 96.9532 32.7178H100.706C100.958 32.7178 101.149 32.7855 101.276 32.9245C101.402 33.0617 101.467 33.2372 101.467 33.4473C101.467 33.5533 101.438 33.654 101.386 33.7513C101.332 33.8486 101.262 33.9424 101.17 34.031L99.5147 35.8409Z" fill="#FF8A00"/>
<path d="M93.7871 36.1049C93.689 36.3116 93.5664 36.4801 93.4192 36.6104C93.272 36.7406 93.1214 36.8049 92.9654 36.8049H90.8314V34.1178H92.9654C93.1214 34.1178 93.272 34.1821 93.4192 34.3071C93.5664 34.4322 93.689 34.5972 93.7871 34.7987C93.8853 35.0002 93.9343 35.2208 93.9343 35.4553C93.9343 35.6811 93.8853 35.8982 93.7871 36.1049Z" fill="#FF8A00"/>
<path d="M17.3791 75.546C17.1366 75.546 16.9406 75.6543 16.7892 75.871L14.0889 79.906L11.4678 75.871C11.4042 75.7747 11.3096 75.6956 11.1857 75.6354C11.0619 75.5752 10.9415 75.5442 10.8297 75.5442C10.6216 75.5442 10.4427 75.6165 10.2931 75.761C10.1452 75.9054 10.0712 76.0791 10.0712 76.2786V83.2512C10.0712 83.4593 10.1349 83.6347 10.2639 83.774C10.3911 83.9151 10.5562 83.9856 10.7558 83.9856C10.9656 83.9856 11.1341 83.9151 11.2614 83.774C11.3904 83.6347 11.454 83.4593 11.454 83.2512V78.291L13.4405 81.4315C13.5128 81.521 13.6039 81.5966 13.7106 81.6603C13.8189 81.7256 13.9256 81.7549 14.0305 81.7463C14.1423 81.7549 14.2541 81.7256 14.3607 81.6603C14.469 81.5966 14.5602 81.521 14.6324 81.4315L16.6172 78.4045V83.2512C16.6172 83.4593 16.6877 83.6347 16.8288 83.774C16.9681 83.9151 17.1521 83.9856 17.3757 83.9856C17.5993 83.9856 17.7799 83.9151 17.9158 83.774C18.0534 83.6347 18.1204 83.4593 18.1204 83.2512V76.2786C18.1204 76.0637 18.0448 75.8848 17.8917 75.7489C17.7386 75.613 17.5735 75.546 17.3791 75.546Z" fill="white"/>
<path d="M25.9151 80.3755H25.4094V76.2941C25.4094 76.086 25.3424 75.9106 25.2116 75.7696C25.0792 75.6285 24.9072 75.558 24.6991 75.558C24.5701 75.558 24.4532 75.5855 24.35 75.6371C24.2468 75.6887 24.1625 75.7592 24.0971 75.847L20.2927 80.5062C20.174 80.6507 20.1138 80.8123 20.1138 80.9878C20.1138 81.1873 20.1912 81.3576 20.3494 81.4934C20.506 81.631 20.6693 81.6981 20.8362 81.6981H23.9664V83.2512C23.9664 83.4593 24.0335 83.6347 24.1694 83.774C24.307 83.9151 24.4755 83.9856 24.6767 83.9856C24.8849 83.9856 25.0603 83.9151 25.1996 83.774C25.3406 83.6347 25.4112 83.4593 25.4112 83.2512V81.6981H25.9168C26.1094 81.6981 26.2694 81.6362 26.3984 81.5124C26.5257 81.3885 26.5893 81.2337 26.5893 81.048C26.5893 80.8553 26.5257 80.6954 26.3984 80.5664C26.2677 80.4391 26.1094 80.3755 25.9151 80.3755ZM22.0212 80.3755L23.9664 77.9659V80.3755H22.0212Z" fill="white"/>
<path d="M32.1033 75.9914C32.0483 75.8401 31.9571 75.7214 31.8333 75.6371C31.7095 75.5528 31.5753 75.5116 31.4309 75.5116C31.2778 75.4944 31.135 75.5322 31.0026 75.6199C30.8719 75.7094 30.7721 75.8332 30.7085 75.9931L27.7107 83.1944C27.6866 83.2735 27.6746 83.3509 27.6746 83.4232C27.6746 83.6003 27.7262 83.7465 27.8328 83.8686C27.9377 83.989 28.0959 84.0492 28.3126 84.0492C28.4502 84.0492 28.5758 84.0079 28.6927 83.922C28.808 83.8377 28.8957 83.7207 28.9507 83.5677L29.5768 82.0988H33.1662L33.7923 83.5573C33.8559 83.7104 33.9471 83.8291 34.0623 83.9185C34.1776 84.008 34.31 84.0509 34.4545 84.0509C34.623 84.0509 34.7778 83.9873 34.9188 83.8583C35.0599 83.731 35.1287 83.5573 35.1287 83.3406C35.1287 83.2512 35.108 83.1566 35.0702 83.0517L32.1033 75.9914ZM30.1633 80.7109L31.3621 77.8937L32.5712 80.7109H30.1633Z" fill="white"/>
<path d="M37.6346 70.6803H36.8262V54.4787C36.8262 53.7959 36.6766 53.1458 36.4324 52.5421C36.4152 52.3632 36.355 52.1947 36.2432 52.064C36.1744 51.9247 36.0832 51.7939 36.0007 51.6581C35.9491 51.5738 35.9061 51.4878 35.8493 51.407C35.6756 51.1593 35.483 50.9202 35.268 50.7035L29.2827 44.7182C28.8217 44.2573 28.2765 43.8858 27.7348 43.6553L27.7279 43.6536C27.721 43.6501 27.7141 43.645 27.7072 43.6433C27.7004 43.6398 27.6918 43.6433 27.6849 43.6398C27.0003 43.3251 26.2711 43.1617 25.5092 43.1617H3.66626C2.03406 43.1617 0.708008 44.4877 0.708008 46.1199L0.708008 90.081C0.708008 91.7115 2.03406 93.0392 3.66626 93.0392H33.868C35.4985 93.0392 36.8262 91.7132 36.8262 90.081V89.5994H37.6346C39.0862 89.5994 40.2661 88.4178 40.2661 86.9679V73.3118C40.2661 71.8619 39.0845 70.6803 37.6346 70.6803ZM33.8903 51.7613H29.0866C28.6136 51.7613 28.2267 51.376 28.2267 50.9013V46.0976L33.8903 51.7613ZM35.1063 90.081C35.1063 90.7621 34.5508 91.3193 33.868 91.3193H3.66626C2.98518 91.3193 2.42792 90.7638 2.42792 90.081L2.42792 46.1199C2.42792 45.4371 2.98346 44.8816 3.66626 44.8816H25.5092C25.8549 44.8816 26.1817 44.947 26.5067 45.045V50.9013C26.5067 52.3237 27.6642 53.4812 29.0866 53.4812H34.9446C35.041 53.8011 35.1063 54.1296 35.1063 54.4787V70.6803H21.2266C20.9789 70.6803 20.7502 70.5857 20.5799 70.4172L19.8919 69.7292C19.3949 69.2339 18.7327 68.9604 18.0276 68.9604H6.77931C5.3277 68.9604 4.14784 70.142 4.14784 71.5919V86.9662C4.14784 88.4178 5.32942 89.5977 6.77931 89.5977H35.1063V90.081ZM38.5461 86.9679C38.5461 87.4701 38.1368 87.8795 37.6346 87.8795H6.77931C6.27709 87.8795 5.86775 87.4701 5.86775 86.9679L5.86775 71.5919C5.86775 71.0897 6.27709 70.6803 6.77931 70.6803H18.0276C18.2752 70.6803 18.504 70.7749 18.6742 70.9435L19.3622 71.6314C19.8575 72.1268 20.5197 72.3985 21.2249 72.3985H37.6346C38.1368 72.3985 38.5461 72.8079 38.5461 73.3101V86.9679Z" fill="white"/>
<path d="M6.72771 67.2405C8.15008 67.2405 9.30758 66.083 9.30758 64.6606V60.0684L19.6271 55.6465V60.5208C19.357 60.4228 19.0698 60.3608 18.7671 60.3608C17.3447 60.3608 16.1872 61.5183 16.1872 62.9407C16.1872 64.3631 17.3447 65.5206 18.7671 65.5206C20.1895 65.5206 21.347 64.3631 21.347 62.9407V54.3394C21.347 54.3394 21.347 54.336 21.347 54.3325V49.1814C21.347 48.8924 21.2025 48.6224 20.96 48.4642C20.7192 48.3059 20.4148 48.2767 20.1465 48.3919L8.10708 53.5517C7.79234 53.6858 7.58767 53.9971 7.58767 54.3411V59.5026C7.58767 59.5026 7.58767 59.506 7.58767 59.5095V62.2407C7.31764 62.1427 7.03042 62.0808 6.72771 62.0808C5.30534 62.0808 4.14784 63.2383 4.14784 64.6606C4.14784 66.083 5.30534 67.2405 6.72771 67.2405ZM18.7671 63.8007C18.2941 63.8007 17.9072 63.4154 17.9072 62.9407C17.9072 62.466 18.2941 62.0808 18.7671 62.0808C19.2401 62.0808 19.6271 62.466 19.6271 62.9407C19.6271 63.4154 19.2401 63.8007 18.7671 63.8007ZM19.6271 50.4851V53.7736L9.30758 58.1955V54.9087L19.6271 50.4851ZM6.72771 63.8007C7.20069 63.8007 7.58767 64.1859 7.58767 64.6606C7.58767 65.1353 7.20069 65.5206 6.72771 65.5206C6.25473 65.5206 5.86775 65.1353 5.86775 64.6606C5.86775 64.1859 6.25473 63.8007 6.72771 63.8007Z" fill="white"/>
<path d="M27.3667 68.9604C28.7891 68.9604 29.9466 67.8029 29.9466 66.3805V56.976C30.2733 57.0466 30.65 57.1859 30.9613 57.4662C31.4291 57.8893 31.6665 58.5721 31.6665 59.5009C31.6665 59.9756 32.0517 60.3608 32.5264 60.3608C33.0011 60.3608 33.3864 59.9756 33.3864 59.5009C33.3864 58.0647 32.9581 56.9502 32.1119 56.1883C30.822 55.0274 29.0694 55.1959 28.9972 55.2062C28.5586 55.251 28.2267 55.6207 28.2267 56.061V63.9589C27.9566 63.8626 27.6694 63.8007 27.3667 63.8007C25.9443 63.8007 24.7868 64.9582 24.7868 66.3805C24.7868 67.8029 25.9443 68.9604 27.3667 68.9604ZM27.3667 65.5206C27.8397 65.5206 28.2267 65.9058 28.2267 66.3805C28.2267 66.8552 27.8397 67.2405 27.3667 67.2405C26.8937 67.2405 26.5067 66.8552 26.5067 66.3805C26.5067 65.9058 26.8937 65.5206 27.3667 65.5206Z" fill="white"/>
<path fill-rule="evenodd" clip-rule="evenodd" d="M38.5461 86.9679C38.5461 87.4701 38.1368 87.8795 37.6346 87.8795H6.77931C6.27709 87.8795 5.86775 87.4701 5.86775 86.9679L5.86775 71.5919C5.86775 71.0897 6.27709 70.6803 6.77931 70.6803H18.0276C18.2752 70.6803 18.504 70.7749 18.6742 70.9435L19.3622 71.6314C19.8575 72.1268 20.5197 72.3985 21.2249 72.3985H37.6346C38.1368 72.3985 38.5461 72.8079 38.5461 73.3101V86.9679ZM16.7892 75.871C16.9406 75.6543 17.1366 75.546 17.3791 75.546C17.5735 75.546 17.7386 75.613 17.8917 75.7489C18.0448 75.8848 18.1204 76.0637 18.1204 76.2786V83.2512C18.1204 83.4593 18.0534 83.6347 17.9158 83.774C17.7799 83.9151 17.5993 83.9856 17.3757 83.9856C17.1521 83.9856 16.9681 83.9151 16.8288 83.774C16.6877 83.6347 16.6172 83.4593 16.6172 83.2512V78.4045L14.6324 81.4315C14.5602 81.521 14.469 81.5966 14.3607 81.6603C14.2541 81.7256 14.1423 81.7549 14.0305 81.7463C13.9256 81.7549 13.8189 81.7256 13.7106 81.6603C13.6039 81.5966 13.5128 81.521 13.4405 81.4315L11.454 78.291V83.2512C11.454 83.4593 11.3904 83.6347 11.2614 83.774C11.1341 83.9151 10.9656 83.9856 10.7558 83.9856C10.5562 83.9856 10.3911 83.9151 10.2639 83.774C10.1349 83.6347 10.0712 83.4593 10.0712 83.2512V76.2786C10.0712 76.0791 10.1452 75.9054 10.2931 75.761C10.4427 75.6165 10.6216 75.5442 10.8297 75.5442C10.9415 75.5442 11.0619 75.5752 11.1857 75.6354C11.3096 75.6956 11.4042 75.7747 11.4678 75.871L14.0889 79.906L16.7892 75.871ZM25.4094 80.3755H25.9151C26.1094 80.3755 26.2677 80.4391 26.3984 80.5664C26.5257 80.6954 26.5893 80.8553 26.5893 81.048C26.5893 81.2337 26.5257 81.3885 26.3984 81.5124C26.2694 81.6362 26.1094 81.6981 25.9168 81.6981H25.4112V83.2512C25.4112 83.4593 25.3406 83.6347 25.1996 83.774C25.0603 83.9151 24.8849 83.9856 24.6767 83.9856C24.4755 83.9856 24.307 83.9151 24.1694 83.774C24.0335 83.6347 23.9664 83.4593 23.9664 83.2512V81.6981H20.8362C20.6693 81.6981 20.506 81.631 20.3494 81.4934C20.1912 81.3576 20.1138 81.1873 20.1138 80.9878C20.1138 80.8123 20.174 80.6507 20.2927 80.5062L24.0971 75.847C24.1625 75.7592 24.2468 75.6887 24.35 75.6371C24.4532 75.5855 24.5701 75.558 24.6991 75.558C24.9072 75.558 25.0792 75.6285 25.2116 75.7696C25.3424 75.9106 25.4094 76.086 25.4094 76.2941V80.3755ZM31.8333 75.6371C31.9571 75.7214 32.0483 75.8401 32.1033 75.9914L35.0702 83.0517C35.108 83.1566 35.1287 83.2512 35.1287 83.3406C35.1287 83.5573 35.0599 83.731 34.9188 83.8583C34.7778 83.9873 34.623 84.0509 34.4545 84.0509C34.31 84.0509 34.1776 84.008 34.0623 83.9185C33.9471 83.8291 33.8559 83.7104 33.7923 83.5573L33.1662 82.0988H29.5768L28.9507 83.5677C28.8957 83.7207 28.808 83.8377 28.6927 83.922C28.5758 84.0079 28.4502 84.0492 28.3126 84.0492C28.0959 84.0492 27.9377 83.989 27.8328 83.8686C27.7262 83.7465 27.6746 83.6003 27.6746 83.4232C27.6746 83.3509 27.6866 83.2735 27.7107 83.1944L30.7085 75.9931C30.7721 75.8332 30.8719 75.7094 31.0026 75.6199C31.135 75.5322 31.2778 75.4944 31.4309 75.5116C31.5753 75.5116 31.7095 75.5528 31.8333 75.6371Z" fill="#0057FF"/>
<path d="M22.0212 80.3755L23.9664 77.9659V80.3755H22.0212Z" fill="#0057FF"/>
<path d="M30.1633 80.7109L31.3621 77.8937L32.5712 80.7109H30.1633Z" fill="#0057FF"/>
</svg>
