<svg width="34" height="34" viewBox="0 0 34 34" fill="none" xmlns="http://www.w3.org/2000/svg">
<path d="M3.5 13.6667C3.5 12.8382 2.82843 12.1667 2 12.1667C1.17157 12.1667 0.5 12.8382 0.5 13.6667H3.5ZM0.5 18.6667C0.5 19.4951 1.17157 20.1667 2 20.1667C2.82843 20.1667 3.5 19.4951 3.5 18.6667H0.5ZM9.5 7C9.5 6.17157 8.82843 5.5 8 5.5C7.17157 5.5 6.5 6.17157 6.5 7H9.5ZM6.5 25.3333C6.5 26.1618 7.17157 26.8333 8 26.8333C8.82843 26.8333 9.5 26.1618 9.5 25.3333H6.5ZM15.5 2C15.5 1.17157 14.8284 0.5 14 0.5C13.1716 0.5 12.5 1.17157 12.5 2H15.5ZM12.5 32C12.5 32.8284 13.1716 33.5 14 33.5C14.8284 33.5 15.5 32.8284 15.5 32H12.5ZM21.5 10.3333C21.5 9.50491 20.8284 8.83333 20 8.83333C19.1716 8.83333 18.5 9.50491 18.5 10.3333H21.5ZM18.5 22C18.5 22.8284 19.1716 23.5 20 23.5C20.8284 23.5 21.5 22.8284 21.5 22H18.5ZM27.5 5.33333C27.5 4.50491 26.8284 3.83333 26 3.83333C25.1716 3.83333 24.5 4.50491 24.5 5.33333H27.5ZM24.5 27C24.5 27.8284 25.1716 28.5 26 28.5C26.8284 28.5 27.5 27.8284 27.5 27H24.5ZM33.5 13.6667C33.5 12.8382 32.8284 12.1667 32 12.1667C31.1716 12.1667 30.5 12.8382 30.5 13.6667H33.5ZM30.5 18.6667C30.5 19.4951 31.1716 20.1667 32 20.1667C32.8284 20.1667 33.5 19.4951 33.5 18.6667H30.5ZM0.5 13.6667V18.6667H3.5V13.6667H0.5ZM6.5 7V25.3333H9.5V7H6.5ZM12.5 2V32H15.5V2H12.5ZM18.5 10.3333V22H21.5V10.3333H18.5ZM24.5 5.33333V27H27.5V5.33333H24.5ZM30.5 13.6667V18.6667H33.5V13.6667H30.5Z" fill="#F9A8D4"/>
</svg>
