<svg width="41" height="51" viewBox="0 0 41 51" fill="none" xmlns="http://www.w3.org/2000/svg">
<path d="M17.3791 32.546C17.1366 32.546 16.9406 32.6543 16.7892 32.871L14.0889 36.906L11.4678 32.871C11.4042 32.7747 11.3096 32.6956 11.1857 32.6354C11.0619 32.5752 10.9415 32.5442 10.8297 32.5442C10.6216 32.5442 10.4427 32.6165 10.2931 32.761C10.1452 32.9054 10.0712 33.0791 10.0712 33.2786V40.2512C10.0712 40.4593 10.1349 40.6347 10.2639 40.774C10.3911 40.9151 10.5562 40.9856 10.7558 40.9856C10.9656 40.9856 11.1341 40.9151 11.2614 40.774C11.3904 40.6347 11.454 40.4593 11.454 40.2512V35.291L13.4405 38.4315C13.5128 38.521 13.6039 38.5966 13.7106 38.6603C13.8189 38.7256 13.9256 38.7549 14.0305 38.7463C14.1423 38.7549 14.2541 38.7256 14.3607 38.6603C14.469 38.5966 14.5602 38.521 14.6324 38.4315L16.6172 35.4045V40.2512C16.6172 40.4593 16.6877 40.6347 16.8288 40.774C16.9681 40.9151 17.1521 40.9856 17.3757 40.9856C17.5993 40.9856 17.7799 40.9151 17.9158 40.774C18.0534 40.6347 18.1204 40.4593 18.1204 40.2512V33.2786C18.1204 33.0637 18.0448 32.8848 17.8917 32.7489C17.7386 32.613 17.5735 32.546 17.3791 32.546Z" fill="white"/>
<path d="M25.9151 37.3755H25.4094V33.2941C25.4094 33.086 25.3424 32.9106 25.2116 32.7696C25.0792 32.6285 24.9072 32.558 24.6991 32.558C24.5701 32.558 24.4532 32.5855 24.35 32.6371C24.2468 32.6887 24.1625 32.7592 24.0971 32.847L20.2927 37.5062C20.174 37.6507 20.1138 37.8123 20.1138 37.9878C20.1138 38.1873 20.1912 38.3576 20.3494 38.4934C20.506 38.631 20.6693 38.6981 20.8362 38.6981H23.9664V40.2512C23.9664 40.4593 24.0335 40.6347 24.1694 40.774C24.307 40.9151 24.4755 40.9856 24.6767 40.9856C24.8849 40.9856 25.0603 40.9151 25.1996 40.774C25.3406 40.6347 25.4112 40.4593 25.4112 40.2512V38.6981H25.9168C26.1094 38.6981 26.2694 38.6362 26.3984 38.5124C26.5257 38.3885 26.5893 38.2337 26.5893 38.048C26.5893 37.8553 26.5257 37.6954 26.3984 37.5664C26.2677 37.4391 26.1094 37.3755 25.9151 37.3755ZM22.0212 37.3755L23.9664 34.9659V37.3755H22.0212Z" fill="white"/>
<path d="M32.1033 32.9914C32.0483 32.8401 31.9571 32.7214 31.8333 32.6371C31.7095 32.5528 31.5753 32.5116 31.4309 32.5116C31.2778 32.4944 31.135 32.5322 31.0026 32.6199C30.8719 32.7094 30.7721 32.8332 30.7085 32.9931L27.7107 40.1944C27.6866 40.2735 27.6746 40.3509 27.6746 40.4232C27.6746 40.6003 27.7262 40.7465 27.8328 40.8686C27.9377 40.989 28.0959 41.0492 28.3126 41.0492C28.4502 41.0492 28.5758 41.0079 28.6927 40.922C28.808 40.8377 28.8957 40.7207 28.9507 40.5677L29.5768 39.0988H33.1662L33.7923 40.5573C33.8559 40.7104 33.9471 40.8291 34.0623 40.9185C34.1776 41.008 34.31 41.0509 34.4545 41.0509C34.623 41.0509 34.7778 40.9873 34.9188 40.8583C35.0599 40.731 35.1287 40.5573 35.1287 40.3406C35.1287 40.2512 35.108 40.1566 35.0702 40.0517L32.1033 32.9914ZM30.1633 37.7109L31.3621 34.8937L32.5712 37.7109H30.1633Z" fill="white"/>
<path d="M37.6346 27.6803H36.8262V11.4787C36.8262 10.7959 36.6766 10.1458 36.4324 9.5421C36.4152 9.36323 36.355 9.19468 36.2432 9.06396C36.1744 8.92465 36.0832 8.79394 36.0007 8.65806C35.9491 8.57379 35.9061 8.48779 35.8493 8.40696C35.6756 8.15929 35.483 7.92022 35.268 7.70351L29.2827 1.71821C28.8217 1.25727 28.2765 0.885766 27.7348 0.655298L27.7279 0.653578C27.721 0.650138 27.7141 0.644978 27.7072 0.643258C27.7004 0.639819 27.6918 0.643258 27.6849 0.639819C27.0003 0.325074 26.2711 0.161682 25.5092 0.161682L3.66626 0.161682C2.03406 0.161682 0.708008 1.48774 0.708008 3.11994L0.708008 47.081C0.708008 48.7115 2.03406 50.0392 3.66626 50.0392H33.868C35.4985 50.0392 36.8262 48.7132 36.8262 47.081V46.5994H37.6346C39.0862 46.5994 40.2661 45.4178 40.2661 43.9679V30.3118C40.2661 28.8619 39.0845 27.6803 37.6346 27.6803ZM33.8903 8.76126H29.0866C28.6136 8.76126 28.2267 8.376 28.2267 7.9013V3.09758L33.8903 8.76126ZM35.1063 47.081C35.1063 47.7621 34.5508 48.3193 33.868 48.3193H3.66626C2.98518 48.3193 2.42792 47.7638 2.42792 47.081L2.42792 3.11994C2.42792 2.43713 2.98346 1.8816 3.66626 1.8816L25.5092 1.8816C25.8549 1.8816 26.1817 1.94695 26.5067 2.04499V7.9013C26.5067 9.32367 27.6642 10.4812 29.0866 10.4812H34.9446C35.041 10.8011 35.1063 11.1296 35.1063 11.4787V27.6803L21.2266 27.6803C20.9789 27.6803 20.7502 27.5857 20.5799 27.4172L19.8919 26.7292C19.3949 26.2339 18.7327 25.9604 18.0276 25.9604H6.77931C5.3277 25.9604 4.14784 27.142 4.14784 28.5919V43.9662C4.14784 45.4178 5.32942 46.5977 6.77931 46.5977H35.1063V47.081ZM38.5461 43.9679C38.5461 44.4701 38.1368 44.8795 37.6346 44.8795H6.77931C6.27709 44.8795 5.86775 44.4701 5.86775 43.9679L5.86775 28.5919C5.86775 28.0897 6.27709 27.6803 6.77931 27.6803H18.0276C18.2752 27.6803 18.504 27.7749 18.6742 27.9435L19.3622 28.6314C19.8575 29.1268 20.5197 29.3985 21.2249 29.3985L37.6346 29.3985C38.1368 29.3985 38.5461 29.8079 38.5461 30.3101V43.9679Z" fill="white"/>
<path d="M6.72771 24.2405C8.15008 24.2405 9.30758 23.083 9.30758 21.6606V17.0684L19.6271 12.6465V17.5208C19.357 17.4228 19.0698 17.3608 18.7671 17.3608C17.3447 17.3608 16.1872 18.5183 16.1872 19.9407C16.1872 21.3631 17.3447 22.5206 18.7671 22.5206C20.1895 22.5206 21.347 21.3631 21.347 19.9407V11.3394C21.347 11.3394 21.347 11.336 21.347 11.3325V6.18139C21.347 5.89244 21.2025 5.62241 20.96 5.46418C20.7192 5.30595 20.4148 5.27671 20.1465 5.39194L8.10708 10.5517C7.79234 10.6858 7.58767 10.9971 7.58767 11.3411V16.5026C7.58767 16.5026 7.58767 16.506 7.58767 16.5095V19.2407C7.31764 19.1427 7.03042 19.0808 6.72771 19.0808C5.30534 19.0808 4.14784 20.2383 4.14784 21.6606C4.14784 23.083 5.30534 24.2405 6.72771 24.2405ZM18.7671 20.8007C18.2941 20.8007 17.9072 20.4154 17.9072 19.9407C17.9072 19.466 18.2941 19.0808 18.7671 19.0808C19.2401 19.0808 19.6271 19.466 19.6271 19.9407C19.6271 20.4154 19.2401 20.8007 18.7671 20.8007ZM19.6271 7.48508V10.7736L9.30758 15.1955V11.9087L19.6271 7.48508ZM6.72771 20.8007C7.20069 20.8007 7.58767 21.1859 7.58767 21.6606C7.58767 22.1353 7.20069 22.5206 6.72771 22.5206C6.25473 22.5206 5.86775 22.1353 5.86775 21.6606C5.86775 21.1859 6.25473 20.8007 6.72771 20.8007Z" fill="white"/>
<path d="M27.3667 25.9604C28.7891 25.9604 29.9466 24.8029 29.9466 23.3805V13.976C30.2733 14.0466 30.65 14.1859 30.9613 14.4662C31.4291 14.8893 31.6665 15.5721 31.6665 16.5009C31.6665 16.9756 32.0517 17.3608 32.5264 17.3608C33.0011 17.3608 33.3864 16.9756 33.3864 16.5009C33.3864 15.0647 32.9581 13.9502 32.1119 13.1883C30.822 12.0274 29.0694 12.1959 28.9972 12.2062C28.5586 12.251 28.2267 12.6207 28.2267 13.061V20.9589C27.9566 20.8626 27.6694 20.8007 27.3667 20.8007C25.9443 20.8007 24.7868 21.9582 24.7868 23.3805C24.7868 24.8029 25.9443 25.9604 27.3667 25.9604ZM27.3667 22.5206C27.8397 22.5206 28.2267 22.9058 28.2267 23.3805C28.2267 23.8552 27.8397 24.2405 27.3667 24.2405C26.8937 24.2405 26.5067 23.8552 26.5067 23.3805C26.5067 22.9058 26.8937 22.5206 27.3667 22.5206Z" fill="white"/>
<path fill-rule="evenodd" clip-rule="evenodd" d="M38.5461 43.9679C38.5461 44.4701 38.1368 44.8795 37.6346 44.8795H6.77931C6.27709 44.8795 5.86775 44.4701 5.86775 43.9679L5.86775 28.5919C5.86775 28.0897 6.27709 27.6803 6.77931 27.6803H18.0276C18.2752 27.6803 18.504 27.7749 18.6742 27.9435L19.3622 28.6314C19.8575 29.1268 20.5197 29.3985 21.2249 29.3985L37.6346 29.3985C38.1368 29.3985 38.5461 29.8079 38.5461 30.3101V43.9679ZM16.7892 32.871C16.9406 32.6543 17.1366 32.546 17.3791 32.546C17.5735 32.546 17.7386 32.613 17.8917 32.7489C18.0448 32.8848 18.1204 33.0637 18.1204 33.2786V40.2512C18.1204 40.4593 18.0534 40.6347 17.9158 40.774C17.7799 40.9151 17.5993 40.9856 17.3757 40.9856C17.1521 40.9856 16.9681 40.9151 16.8288 40.774C16.6877 40.6347 16.6172 40.4593 16.6172 40.2512V35.4045L14.6324 38.4315C14.5602 38.521 14.469 38.5966 14.3607 38.6603C14.2541 38.7256 14.1423 38.7549 14.0305 38.7463C13.9256 38.7549 13.8189 38.7256 13.7106 38.6603C13.6039 38.5966 13.5128 38.521 13.4405 38.4315L11.454 35.291V40.2512C11.454 40.4593 11.3904 40.6347 11.2614 40.774C11.1341 40.9151 10.9656 40.9856 10.7558 40.9856C10.5562 40.9856 10.3911 40.9151 10.2639 40.774C10.1349 40.6347 10.0712 40.4593 10.0712 40.2512V33.2786C10.0712 33.0791 10.1452 32.9054 10.2931 32.761C10.4427 32.6165 10.6216 32.5442 10.8297 32.5442C10.9415 32.5442 11.0619 32.5752 11.1857 32.6354C11.3096 32.6956 11.4042 32.7747 11.4678 32.871L14.0889 36.906L16.7892 32.871ZM25.4094 37.3755H25.9151C26.1094 37.3755 26.2677 37.4391 26.3984 37.5664C26.5257 37.6954 26.5893 37.8553 26.5893 38.048C26.5893 38.2337 26.5257 38.3885 26.3984 38.5124C26.2694 38.6362 26.1094 38.6981 25.9168 38.6981H25.4112V40.2512C25.4112 40.4593 25.3406 40.6347 25.1996 40.774C25.0603 40.9151 24.8849 40.9856 24.6767 40.9856C24.4755 40.9856 24.307 40.9151 24.1694 40.774C24.0335 40.6347 23.9664 40.4593 23.9664 40.2512V38.6981H20.8362C20.6693 38.6981 20.506 38.631 20.3494 38.4934C20.1912 38.3576 20.1138 38.1873 20.1138 37.9878C20.1138 37.8123 20.174 37.6507 20.2927 37.5062L24.0971 32.847C24.1625 32.7592 24.2468 32.6887 24.35 32.6371C24.4532 32.5855 24.5701 32.558 24.6991 32.558C24.9072 32.558 25.0792 32.6285 25.2116 32.7696C25.3424 32.9106 25.4094 33.086 25.4094 33.2941V37.3755ZM31.8333 32.6371C31.9571 32.7214 32.0483 32.8401 32.1033 32.9914L35.0702 40.0517C35.108 40.1566 35.1287 40.2512 35.1287 40.3406C35.1287 40.5573 35.0599 40.731 34.9188 40.8583C34.7778 40.9873 34.623 41.0509 34.4545 41.0509C34.31 41.0509 34.1776 41.008 34.0623 40.9185C33.9471 40.8291 33.8559 40.7104 33.7923 40.5573L33.1662 39.0988H29.5768L28.9507 40.5677C28.8957 40.7207 28.808 40.8377 28.6927 40.922C28.5758 41.0079 28.4502 41.0492 28.3126 41.0492C28.0959 41.0492 27.9377 40.989 27.8328 40.8686C27.7262 40.7465 27.6746 40.6003 27.6746 40.4232C27.6746 40.3509 27.6866 40.2735 27.7107 40.1944L30.7085 32.9931C30.7721 32.8332 30.8719 32.7094 31.0026 32.6199C31.135 32.5322 31.2778 32.4944 31.4309 32.5116C31.5753 32.5116 31.7095 32.5528 31.8333 32.6371Z" fill="#0057FF"/>
<path d="M22.0212 37.3755L23.9664 34.9659V37.3755H22.0212Z" fill="#0057FF"/>
<path d="M30.1633 37.7109L31.3621 34.8937L32.5712 37.7109H30.1633Z" fill="#0057FF"/>
</svg>
