<svg width="41" height="51" viewBox="0 0 41 51" fill="none" xmlns="http://www.w3.org/2000/svg">
<path d="M18.8209 32.7056C18.5756 32.7056 18.3758 32.8151 18.2199 33.0339L15.4691 37.1072L12.799 33.0339C12.7341 32.9367 12.6378 32.8568 12.5099 32.796C12.382 32.7352 12.2628 32.7039 12.1472 32.7039C11.9352 32.7039 11.753 32.7769 11.6005 32.9228C11.4499 33.0687 11.3745 33.2424 11.3745 33.4456V40.4856C11.3745 40.6958 11.4411 40.8729 11.5708 41.0136C11.7004 41.156 11.8686 41.2273 12.0736 41.2273C12.2874 41.2273 12.4573 41.156 12.5887 41.0136C12.7201 40.8712 12.7849 40.6958 12.7849 40.4856V35.4779L14.8086 38.6496C14.8822 38.7382 14.975 38.8163 15.0854 38.8806C15.1958 38.9466 15.3044 38.9744 15.4113 38.9657C15.5252 38.9727 15.6373 38.9449 15.7477 38.8806C15.8581 38.8163 15.951 38.7382 16.0245 38.6496L18.0482 35.5908V40.4856C18.0482 40.6958 18.12 40.8729 18.2637 41.0136C18.4074 41.1543 18.5931 41.2273 18.8209 41.2273C19.0486 41.2273 19.2344 41.156 19.3728 41.0136C19.5129 40.8712 19.5813 40.6958 19.5813 40.4856V33.4456C19.5813 33.2267 19.5042 33.0478 19.3482 32.9106C19.1923 32.7751 19.0171 32.7056 18.8209 32.7056Z" fill="white"/>
<path d="M26.1603 33.0826C25.7889 32.8394 25.3894 32.7178 24.9637 32.7178H22.1673C21.9536 32.7178 21.7766 32.789 21.633 32.9315C21.4893 33.0739 21.4175 33.2493 21.4175 33.4595V40.4873C21.4175 40.6975 21.484 40.8747 21.6137 41.0154C21.7433 41.1578 21.9115 41.229 22.1165 41.229C22.3303 41.229 22.5002 41.1578 22.6317 41.0154C22.7631 40.8729 22.8279 40.6975 22.8279 40.4873V38.1893H24.9619C25.3877 38.1893 25.7854 38.066 26.1586 37.8193C26.53 37.5709 26.8314 37.2409 27.0609 36.8275C27.2887 36.4141 27.4043 35.9573 27.4043 35.4535C27.4043 34.9429 27.2904 34.4808 27.0609 34.0674C26.8331 33.654 26.5335 33.3275 26.1603 33.0826ZM25.7871 36.1049C25.689 36.3116 25.5664 36.4801 25.4192 36.6104C25.272 36.7406 25.1214 36.8049 24.9654 36.8049H22.8314V34.1178H24.9654C25.1214 34.1178 25.272 34.1821 25.4192 34.3071C25.5664 34.4322 25.689 34.5972 25.7871 34.7987C25.8853 35.0002 25.9343 35.2208 25.9343 35.4553C25.9343 35.6811 25.8853 35.8982 25.7871 36.1049Z" fill="white"/>
<path d="M32.6991 36.2022C32.3627 35.9694 31.965 35.8548 31.5147 35.8409L33.1704 34.031C33.2615 33.9424 33.3316 33.8486 33.3859 33.7513C33.4385 33.654 33.4665 33.5533 33.4665 33.4473C33.4665 33.2372 33.4017 33.0617 33.2756 32.9245C33.1494 32.7855 32.9584 32.7178 32.7061 32.7178H28.9532C28.7569 32.7178 28.5922 32.7803 28.4626 32.9054C28.3329 33.0305 28.2663 33.1868 28.2663 33.3744C28.2663 33.5689 28.3312 33.7322 28.4626 33.8607C28.594 33.991 28.7569 34.0553 28.9532 34.0553H31.3798L29.4805 36.1101C29.3912 36.2161 29.3229 36.3134 29.2791 36.4019C29.2335 36.4905 29.2107 36.5913 29.2107 36.7059C29.2107 36.8848 29.2615 37.0377 29.3632 37.1679C29.4665 37.2982 29.6102 37.3625 29.7994 37.3625C29.9466 37.3625 30.0763 37.3451 30.1866 37.3086C30.297 37.2722 30.4109 37.2374 30.53 37.2044C30.6492 37.1714 30.7981 37.1558 30.9768 37.1558C31.2134 37.1558 31.4376 37.2096 31.6461 37.3139C31.8546 37.4198 32.0211 37.5727 32.149 37.7759C32.2769 37.9791 32.3399 38.2344 32.3399 38.5419C32.3399 38.8667 32.2664 39.1429 32.1192 39.3739C31.972 39.6049 31.7863 39.7821 31.5603 39.9089C31.336 40.034 31.096 40.0965 30.8437 40.0965C30.5896 40.0965 30.3671 40.0565 30.1744 39.9749C29.9834 39.895 29.8169 39.8012 29.6785 39.6953C29.5716 39.6223 29.4753 39.5737 29.3894 39.5493C29.3036 39.525 29.223 39.5129 29.1494 39.5129C28.9444 39.5129 28.7762 39.5962 28.6395 39.763C28.5046 39.9297 28.4381 40.1052 28.4381 40.291C28.4381 40.397 28.4696 40.5082 28.5292 40.6245C28.5905 40.7426 28.7114 40.8503 28.8918 40.9476C29.1056 41.0692 29.3579 41.1665 29.6522 41.2394C29.9466 41.3124 30.2444 41.3489 30.5476 41.3489C31.2011 41.3489 31.774 41.2325 32.2646 40.9962C32.7552 40.7618 33.1354 40.4248 33.4052 39.9871C33.675 39.5493 33.8099 39.03 33.8099 38.4307C33.8099 37.9774 33.7136 37.5536 33.5208 37.161C33.3281 36.7684 33.053 36.4488 32.6991 36.2022Z" fill="white"/>
<path d="M38.0938 27.7917H37.2703V11.4294C37.2703 10.7416 37.1196 10.0884 36.8708 9.48051C36.8551 9.29639 36.7902 9.12616 36.6763 8.99241C36.6063 8.85172 36.5134 8.71971 36.4293 8.58422C36.3767 8.49911 36.3329 8.41226 36.2751 8.32889C36.0999 8.0805 35.9054 7.84253 35.6864 7.62541L35.6812 7.61846L29.5839 1.57378C29.1144 1.10827 28.5607 0.733081 28.007 0.500326C28.0035 0.498589 27.9983 0.496852 27.9983 0.496852C27.9913 0.493378 27.986 0.489904 27.979 0.48643C27.972 0.482956 27.9632 0.48643 27.9562 0.482956C27.2607 0.165089 26.516 7.62939e-05 25.7416 7.62939e-05H3.49014C1.82742 7.62939e-05 0.476562 1.33929 0.476562 2.98768V47.3849C0.476562 49.0332 1.82742 50.3725 3.49014 50.3725H34.2567C35.9177 50.3725 37.2703 49.0332 37.2703 47.3849V46.8985H38.0938C39.5725 46.8985 40.7745 45.7052 40.7745 44.2409V30.4493C40.7745 28.9833 39.5708 27.7917 38.0938 27.7917ZM34.2795 8.68497H29.3859C28.9024 8.68497 28.5099 8.29589 28.5099 7.81648V2.9651L34.2795 8.68497ZM35.5182 47.3849C35.5182 48.0744 34.9523 48.6355 34.2567 48.6355H3.49014C2.79457 48.6355 2.22865 48.0744 2.22865 47.3849V2.98768C2.22865 2.2981 2.79457 1.73705 3.49014 1.73705H25.7416C26.0938 1.73705 26.4267 1.80306 26.7578 1.90207V7.81648C26.7578 9.25296 27.937 10.4219 29.3859 10.4219H35.3535C35.4516 10.745 35.5182 11.0768 35.5182 11.4294V27.7917H21.3789C21.1266 27.7917 20.8936 27.6962 20.7201 27.526L20.0193 26.8312C19.5147 26.3309 18.8419 26.0565 18.1218 26.0565H6.66141C5.18266 26.0565 3.98073 27.2481 3.98073 28.7141V44.2427C3.98073 45.7087 5.18441 46.9002 6.66141 46.9002H35.5182V47.3849ZM39.0224 44.2409C39.0224 44.7481 38.6054 45.1615 38.0938 45.1615H6.66141C6.14981 45.1615 5.73281 44.7481 5.73281 44.2409V28.7123C5.73281 28.2051 6.14981 27.7917 6.66141 27.7917H18.12C18.3723 27.7917 18.6054 27.8873 18.7788 28.0575L19.4797 28.7523C19.9843 29.2525 20.6571 29.527 21.3772 29.527H38.0938C38.6054 29.527 39.0224 29.9404 39.0224 30.4476V44.2409Z" fill="white"/>
<path d="M6.60885 24.3178C8.05782 24.3178 9.23698 23.1488 9.23698 21.7123V17.0746L19.7495 12.6088V17.5314C19.4744 17.4324 19.1818 17.3699 18.8734 17.3699C17.4245 17.3699 16.2453 18.5388 16.2453 19.9753C16.2453 21.4118 17.4245 22.5808 18.8734 22.5808C20.3224 22.5808 21.5016 21.4118 21.5016 19.9753V6.0795C21.5016 5.78769 21.3544 5.51498 21.1073 5.35518C20.8603 5.19538 20.5484 5.16585 20.2804 5.28223L8.01578 10.4932C7.69339 10.6286 7.48489 10.943 7.48489 11.2904V19.2666C7.20982 19.1694 6.91722 19.1068 6.60885 19.1068C5.15988 19.1068 3.98073 20.2758 3.98073 21.7123C3.98073 23.1488 5.15988 24.3178 6.60885 24.3178ZM18.8734 20.8438C18.3899 20.8438 17.9974 20.4547 17.9974 19.9753C17.9974 19.4959 18.3899 19.1068 18.8734 19.1068C19.357 19.1068 19.7495 19.4959 19.7495 19.9753C19.7495 20.4547 19.357 20.8438 18.8734 20.8438ZM19.7495 7.39613V10.7172L9.23698 15.183V11.8636L19.7495 7.39613ZM6.60885 20.8438C7.09243 20.8438 7.48489 21.2329 7.48489 21.7123C7.48489 22.1917 7.09243 22.5808 6.60885 22.5808C6.12528 22.5808 5.73281 22.1917 5.73281 21.7123C5.73281 21.2329 6.12528 20.8438 6.60885 20.8438Z" fill="white"/>
<path d="M27.6338 26.0548C29.0828 26.0548 30.262 24.8858 30.262 23.4493V13.9515C30.5949 14.0227 30.9786 14.1634 31.2939 14.4465C31.7723 14.8738 32.0141 15.5634 32.0141 16.5014C32.0141 16.9808 32.4065 17.3699 32.8901 17.3699C33.3737 17.3699 33.7661 16.9808 33.7661 16.5014C33.7661 15.051 33.3281 13.9254 32.4678 13.156C31.159 11.987 29.3719 12.1537 29.2948 12.1641C28.848 12.2093 28.5099 12.5827 28.5099 13.0274V21.0036C28.2348 20.9064 27.9422 20.8438 27.6338 20.8438C26.1849 20.8438 25.0057 22.0128 25.0057 23.4493C25.0057 24.8858 26.1849 26.0548 27.6338 26.0548ZM27.6338 22.5808C28.1174 22.5808 28.5099 22.9699 28.5099 23.4493C28.5099 23.9287 28.1174 24.3178 27.6338 24.3178C27.1503 24.3178 26.7578 23.9287 26.7578 23.4493C26.7578 22.9699 27.1503 22.5808 27.6338 22.5808Z" fill="white"/>
<path fill-rule="evenodd" clip-rule="evenodd" d="M39.0224 44.2409C39.0224 44.7481 38.6054 45.1615 38.0938 45.1615H6.66141C6.14981 45.1615 5.73281 44.7481 5.73281 44.2409V28.7123C5.73281 28.2051 6.14981 27.7917 6.66141 27.7917H18.12C18.3723 27.7917 18.6054 27.8873 18.7788 28.0575L19.4797 28.7523C19.9843 29.2525 20.6571 29.527 21.3772 29.527H38.0938C38.6054 29.527 39.0224 29.9404 39.0224 30.4476V44.2409ZM18.2199 33.0339C18.3758 32.8151 18.5756 32.7056 18.8209 32.7056C19.0171 32.7056 19.1923 32.7751 19.3482 32.9106C19.5042 33.0478 19.5813 33.2267 19.5813 33.4456V40.4856C19.5813 40.6958 19.5129 40.8712 19.3728 41.0136C19.2344 41.156 19.0486 41.2273 18.8209 41.2273C18.5931 41.2273 18.4074 41.1543 18.2637 41.0136C18.12 40.8729 18.0482 40.6958 18.0482 40.4856V35.5908L16.0245 38.6496C15.951 38.7382 15.8581 38.8163 15.7477 38.8806C15.6373 38.9449 15.5252 38.9727 15.4113 38.9657C15.3044 38.9744 15.1958 38.9466 15.0854 38.8806C14.975 38.8163 14.8822 38.7382 14.8086 38.6496L12.7849 35.4779V40.4856C12.7849 40.6958 12.7201 40.8712 12.5887 41.0136C12.4573 41.156 12.2874 41.2273 12.0736 41.2273C11.8686 41.2273 11.7004 41.156 11.5708 41.0136C11.4411 40.8729 11.3745 40.6958 11.3745 40.4856V33.4456C11.3745 33.2424 11.4499 33.0687 11.6005 32.9228C11.753 32.7769 11.9352 32.7039 12.1472 32.7039C12.2628 32.7039 12.382 32.7352 12.5099 32.796C12.6378 32.8568 12.7341 32.9367 12.799 33.0339L15.4691 37.1072L18.2199 33.0339ZM24.9637 32.7178C25.3894 32.7178 25.7889 32.8394 26.1603 33.0826C26.5335 33.3275 26.8331 33.654 27.0609 34.0674C27.2904 34.4808 27.4043 34.9429 27.4043 35.4535C27.4043 35.9573 27.2887 36.4141 27.0609 36.8275C26.8314 37.2409 26.53 37.5709 26.1586 37.8193C25.7854 38.066 25.3877 38.1893 24.9619 38.1893H22.8279V40.4873C22.8279 40.6975 22.7631 40.8729 22.6317 41.0154C22.5002 41.1578 22.3303 41.229 22.1165 41.229C21.9115 41.229 21.7433 41.1578 21.6137 41.0154C21.484 40.8747 21.4175 40.6975 21.4175 40.4873V33.4595C21.4175 33.2493 21.4893 33.0739 21.633 32.9315C21.7766 32.789 21.9536 32.7178 22.1673 32.7178H24.9637ZM31.5147 35.8409C31.965 35.8548 32.3627 35.9694 32.6991 36.2022C33.053 36.4488 33.3281 36.7684 33.5208 37.161C33.7136 37.5536 33.8099 37.9774 33.8099 38.4307C33.8099 39.03 33.675 39.5493 33.4052 39.9871C33.1354 40.4248 32.7552 40.7618 32.2646 40.9962C31.774 41.2325 31.2011 41.3489 30.5476 41.3489C30.2444 41.3489 29.9466 41.3124 29.6522 41.2394C29.3579 41.1665 29.1056 41.0692 28.8918 40.9476C28.7114 40.8503 28.5905 40.7426 28.5292 40.6245C28.4696 40.5082 28.4381 40.397 28.4381 40.291C28.4381 40.1052 28.5046 39.9297 28.6395 39.763C28.7762 39.5962 28.9444 39.5129 29.1494 39.5129C29.223 39.5129 29.3036 39.525 29.3894 39.5493C29.4753 39.5737 29.5716 39.6223 29.6785 39.6953C29.8169 39.8012 29.9834 39.895 30.1744 39.9749C30.3671 40.0565 30.5896 40.0965 30.8437 40.0965C31.096 40.0965 31.336 40.034 31.5603 39.9089C31.7863 39.7821 31.972 39.6049 32.1192 39.3739C32.2664 39.1429 32.3399 38.8667 32.3399 38.5419C32.3399 38.2344 32.2769 37.9791 32.149 37.7759C32.0211 37.5727 31.8546 37.4198 31.6461 37.3139C31.4376 37.2096 31.2134 37.1558 30.9768 37.1558C30.7981 37.1558 30.6492 37.1714 30.53 37.2044C30.4109 37.2374 30.297 37.2722 30.1866 37.3086C30.0763 37.3451 29.9466 37.3625 29.7994 37.3625C29.6102 37.3625 29.4665 37.2982 29.3632 37.1679C29.2615 37.0377 29.2107 36.8848 29.2107 36.7059C29.2107 36.5913 29.2335 36.4905 29.2791 36.4019C29.3229 36.3134 29.3912 36.2161 29.4805 36.1101L31.3798 34.0553H28.9532C28.7569 34.0553 28.594 33.991 28.4626 33.8607C28.3312 33.7322 28.2663 33.5689 28.2663 33.3744C28.2663 33.1868 28.3329 33.0305 28.4626 32.9054C28.5922 32.7803 28.7569 32.7178 28.9532 32.7178H32.7061C32.9584 32.7178 33.1494 32.7855 33.2756 32.9245C33.4017 33.0617 33.4665 33.2372 33.4665 33.4473C33.4665 33.5533 33.4385 33.654 33.3859 33.7513C33.3316 33.8486 33.2615 33.9424 33.1704 34.031L31.5147 35.8409Z" fill="#FF8A00"/>
<path d="M25.7871 36.1049C25.689 36.3116 25.5664 36.4801 25.4192 36.6104C25.272 36.7406 25.1214 36.8049 24.9654 36.8049H22.8314V34.1178H24.9654C25.1214 34.1178 25.272 34.1821 25.4192 34.3071C25.5664 34.4322 25.689 34.5972 25.7871 34.7987C25.8853 35.0002 25.9343 35.2208 25.9343 35.4553C25.9343 35.6811 25.8853 35.8982 25.7871 36.1049Z" fill="#FF8A00"/>
</svg>
