<svg width="41" height="51" viewBox="0 0 41 51" fill="none" xmlns="http://www.w3.org/2000/svg">
<path d="M19.692 33.0792C19.539 33.0792 19.3945 33.1188 19.2586 33.1996C19.121 33.2805 19.0281 33.3957 18.9817 33.5488L17.1999 38.9476L15.719 35.2343C15.664 35.0898 15.5745 34.9763 15.4542 34.8903C15.3355 34.806 15.1979 34.7682 15.0465 34.7768C14.8935 34.7699 14.7576 34.8078 14.6372 34.8903C14.5168 34.9746 14.4239 35.0898 14.3603 35.2343L12.7969 38.9906L11.0013 33.5488C10.9549 33.3957 10.8637 33.2805 10.7313 33.1996C10.5988 33.1205 10.4561 33.0792 10.3047 33.0792C10.1207 33.0792 9.9401 33.1498 9.76811 33.2908C9.5944 33.4318 9.50841 33.621 9.50841 33.8635C9.50841 33.9358 9.52217 34.0149 9.54452 34.1043L11.9163 41.0872C11.9644 41.2316 12.0522 41.3417 12.1812 41.4174C12.3084 41.4931 12.4374 41.5361 12.5664 41.5447C12.7023 41.5447 12.8364 41.5051 12.9689 41.4243C13.1013 41.3434 13.2045 41.2282 13.2767 41.0751L14.9967 37.1898L16.708 41.0751C16.7802 41.2282 16.8834 41.3434 17.0158 41.4243C17.1483 41.5034 17.2824 41.5447 17.4183 41.5447C17.5542 41.5378 17.6849 41.4948 17.8104 41.4174C17.9343 41.3417 18.0203 41.2316 18.0684 41.0872L20.4402 34.1043C20.4643 34.0166 20.4763 33.9358 20.4763 33.8635C20.4763 33.6227 20.392 33.4318 20.2252 33.2908C20.0584 33.1498 19.8761 33.0792 19.692 33.0792Z" fill="white"/>
<path d="M24.9532 33.5488C24.8982 33.3957 24.807 33.277 24.6832 33.1928C24.5594 33.1085 24.4252 33.0655 24.2808 33.0655C24.1277 33.05 23.9849 33.0861 23.8525 33.1738C23.7218 33.2633 23.622 33.3871 23.5584 33.5471L20.5606 40.7466C20.5365 40.8257 20.5245 40.9031 20.5245 40.9754C20.5245 41.1525 20.5761 41.3004 20.6827 41.4208C20.7876 41.5412 20.9458 41.6014 21.1626 41.6014C21.3001 41.6014 21.4257 41.5601 21.5427 41.4741C21.6579 41.3899 21.7456 41.2712 21.8006 41.1181L22.425 39.6493H26.0162L26.6422 41.1061C26.7058 41.2592 26.797 41.3795 26.9122 41.4673C27.0275 41.555 27.1599 41.5997 27.3044 41.5997C27.4729 41.5997 27.6277 41.5343 27.7687 41.4071C27.9098 41.2798 27.9786 41.1061 27.9786 40.8894C27.9786 40.8017 27.9579 40.7053 27.9201 40.6004L24.9532 33.5488ZM23.0132 38.2699L24.212 35.4527L25.4211 38.2699H23.0132Z" fill="white"/>
<path d="M34.043 33.0913C33.7386 33.0913 33.5167 33.2443 33.3808 33.5488L31.1639 39.2365L28.7439 33.5488C28.6081 33.2357 28.3879 33.0792 28.0818 33.0792C27.9287 33.0792 27.7687 33.1412 27.6002 33.265C27.4316 33.3888 27.3491 33.5677 27.3491 33.8016C27.3491 33.8498 27.3525 33.8996 27.3611 33.9512C27.3697 34.0028 27.3852 34.0544 27.4093 34.1009L30.383 41.0837C30.4467 41.2282 30.5395 41.3383 30.6599 41.4139C30.7803 41.4896 30.9059 41.5326 31.0331 41.5412C31.169 41.5412 31.3032 41.5034 31.4356 41.4277C31.568 41.352 31.6712 41.2334 31.7435 41.0717L34.7172 34.1129C34.7636 34.0011 34.7894 33.8928 34.7894 33.7878C34.7894 33.5866 34.7138 33.4198 34.5658 33.2873C34.4197 33.1584 34.2442 33.0913 34.043 33.0913Z" fill="white"/>
<path d="M37.66 28.2377H36.8516V12.0361C36.8516 11.3533 36.702 10.7031 36.4578 10.0995C36.4406 9.92058 36.3804 9.75203 36.2686 9.62131C36.1998 9.482 36.1086 9.35129 36.0261 9.21541C35.9745 9.13114 35.9315 9.04514 35.8747 8.96431C35.701 8.71664 35.5084 8.47757 35.2934 8.26086L29.3081 2.27556C28.8471 1.81462 28.3019 1.44312 27.7601 1.21265L27.7533 1.21093C27.7464 1.20749 27.7395 1.20233 27.7326 1.20061C27.7257 1.19717 27.7171 1.20061 27.7103 1.19717C27.0257 0.882424 26.2965 0.719032 25.5346 0.719032L3.69165 0.719032C2.05945 0.719032 0.733398 2.04509 0.733398 3.67729L0.733398 47.6383C0.733398 49.2705 2.05945 50.5966 3.69165 50.5966H33.8934C35.5238 50.5966 36.8516 49.2705 36.8516 47.6383V47.1567H37.66C39.1116 47.1567 40.2914 45.9752 40.2914 44.5253V30.8691C40.2914 29.4175 39.1099 28.2377 37.66 28.2377ZM33.9157 9.31861H29.112C28.639 9.31861 28.252 8.93335 28.252 8.45865V3.65493L33.9157 9.31861ZM35.1317 47.6383C35.1317 48.3211 34.5762 48.8767 33.8934 48.8767H3.69165C3.01057 48.8767 2.45331 48.3211 2.45331 47.6383L2.45331 3.67729C2.45331 2.99448 3.00885 2.43895 3.69165 2.43895L25.5346 2.43895C25.8803 2.43895 26.2071 2.5043 26.5321 2.60234V8.45865C26.5321 9.88102 27.6896 11.0385 29.112 11.0385H34.97C35.0663 11.3584 35.1317 11.6869 35.1317 12.0361V28.2377L21.252 28.2377C21.0043 28.2377 20.7756 28.1448 20.6053 27.9745L19.9191 27.2866C19.4237 26.7912 18.7615 26.5178 18.0547 26.5178H6.8047C5.35309 26.5178 4.17323 27.6976 4.17323 29.1492V44.5253C4.17323 45.9769 5.35481 47.1567 6.8047 47.1567H35.1317V47.6383ZM38.5715 44.5253C38.5715 45.0275 38.1622 45.4368 37.66 45.4368H6.8047C6.30248 45.4368 5.89314 45.0275 5.89314 44.5253L5.89314 29.1492C5.89314 28.647 6.30248 28.2377 6.8047 28.2377H18.0529C18.3006 28.2377 18.5294 28.3306 18.6996 28.5008L19.3859 29.1888C19.8812 29.6841 20.5434 29.9576 21.2503 29.9576L37.66 29.9576C38.1622 29.9576 38.5715 30.3669 38.5715 30.8691V44.5253Z" fill="white"/>
<path d="M6.7531 24.7978C8.17547 24.7978 9.33297 23.6403 9.33297 22.218V17.6258L19.6525 13.2039V18.0781C19.3824 17.9801 19.0952 17.9182 18.7925 17.9182C17.3701 17.9182 16.2126 19.0757 16.2126 20.4981C16.2126 21.9204 17.3701 23.0779 18.7925 23.0779C20.2149 23.0779 21.3724 21.9204 21.3724 20.4981V11.8968C21.3724 11.8968 21.3724 11.8933 21.3724 11.8899V6.73874C21.3724 6.44979 21.2279 6.17976 20.9854 6.02153C20.7446 5.8633 20.4402 5.83406 20.1719 5.94929L8.13247 11.109C7.81773 11.2432 7.61306 11.5545 7.61306 11.8985V17.0599C7.61306 17.0599 7.61306 17.0634 7.61306 17.0668V19.7981C7.34303 19.7 7.05581 19.6381 6.7531 19.6381C5.33073 19.6381 4.17323 20.7956 4.17323 22.218C4.17323 23.6403 5.33073 24.7978 6.7531 24.7978ZM18.7925 21.358C18.3195 21.358 17.9325 20.9728 17.9325 20.4981C17.9325 20.0234 18.3195 19.6381 18.7925 19.6381C19.2655 19.6381 19.6525 20.0234 19.6525 20.4981C19.6525 20.9728 19.2655 21.358 18.7925 21.358ZM19.6525 8.04243V11.3309L9.33297 15.7528V12.4661L19.6525 8.04243ZM6.7531 21.358C7.22608 21.358 7.61306 21.7433 7.61306 22.218C7.61306 22.6927 7.22608 23.0779 6.7531 23.0779C6.28012 23.0779 5.89314 22.6927 5.89314 22.218C5.89314 21.7433 6.28012 21.358 6.7531 21.358Z" fill="white"/>
<path d="M27.3921 26.5178C28.8145 26.5178 29.972 25.3603 29.972 23.9379V14.5334C30.2987 14.6039 30.6754 14.7432 30.9867 15.0236C31.4545 15.4467 31.6919 16.1295 31.6919 17.0582C31.6919 17.5329 32.0771 17.9182 32.5518 17.9182C33.0265 17.9182 33.4118 17.5329 33.4118 17.0582C33.4118 15.6221 32.9835 14.5076 32.1373 13.7457C30.8474 12.5847 29.0948 12.7533 29.0226 12.7636C28.584 12.8083 28.252 13.1781 28.252 13.6184V21.5162C27.982 21.4199 27.6948 21.358 27.3921 21.358C25.9697 21.358 24.8122 22.5155 24.8122 23.9379C24.8122 25.3603 25.9697 26.5178 27.3921 26.5178ZM27.3921 23.0779C27.8651 23.0779 28.252 23.4632 28.252 23.9379C28.252 24.4126 27.8651 24.7978 27.3921 24.7978C26.9191 24.7978 26.5321 24.4126 26.5321 23.9379C26.5321 23.4632 26.9191 23.0779 27.3921 23.0779Z" fill="white"/>
<path fill-rule="evenodd" clip-rule="evenodd" d="M38.5715 44.5253C38.5715 45.0275 38.1622 45.4368 37.66 45.4368H6.8047C6.30248 45.4368 5.89314 45.0275 5.89314 44.5253L5.89314 29.1492C5.89314 28.647 6.30248 28.2377 6.8047 28.2377H18.0529C18.3006 28.2377 18.5294 28.3306 18.6996 28.5008L19.3859 29.1888C19.8812 29.6841 20.5434 29.9576 21.2503 29.9576L37.66 29.9576C38.1622 29.9576 38.5715 30.3669 38.5715 30.8691V44.5253ZM19.2586 33.1996C19.3945 33.1188 19.539 33.0792 19.692 33.0792C19.8761 33.0792 20.0584 33.1498 20.2252 33.2908C20.392 33.4318 20.4763 33.6227 20.4763 33.8635C20.4763 33.9358 20.4643 34.0166 20.4402 34.1043L18.0684 41.0872C18.0203 41.2316 17.9343 41.3417 17.8104 41.4174C17.6849 41.4948 17.5542 41.5378 17.4183 41.5447C17.2824 41.5447 17.1483 41.5034 17.0158 41.4243C16.8834 41.3434 16.7802 41.2282 16.708 41.0751L14.9967 37.1898L13.2767 41.0751C13.2045 41.2282 13.1013 41.3434 12.9689 41.4243C12.8364 41.5051 12.7023 41.5447 12.5664 41.5447C12.4374 41.5361 12.3084 41.4931 12.1812 41.4174C12.0522 41.3417 11.9644 41.2316 11.9163 41.0872L9.54452 34.1043C9.52217 34.0149 9.50841 33.9358 9.50841 33.8635C9.50841 33.621 9.5944 33.4318 9.76811 33.2908C9.9401 33.1498 10.1207 33.0792 10.3047 33.0792C10.4561 33.0792 10.5988 33.1205 10.7313 33.1996C10.8637 33.2805 10.9549 33.3957 11.0013 33.5488L12.7969 38.9906L14.3603 35.2343C14.4239 35.0898 14.5168 34.9746 14.6372 34.8903C14.7576 34.8078 14.8935 34.7699 15.0465 34.7768C15.1979 34.7682 15.3355 34.806 15.4542 34.8903C15.5745 34.9763 15.664 35.0898 15.719 35.2343L17.1999 38.9476L18.9817 33.5488C19.0281 33.3957 19.121 33.2805 19.2586 33.1996ZM24.6832 33.1928C24.807 33.277 24.8982 33.3957 24.9532 33.5488L27.9201 40.6004C27.9579 40.7053 27.9786 40.8017 27.9786 40.8894C27.9786 41.1061 27.9098 41.2798 27.7687 41.4071C27.6277 41.5343 27.4729 41.5997 27.3044 41.5997C27.1599 41.5997 27.0275 41.555 26.9122 41.4673C26.797 41.3795 26.7058 41.2592 26.6422 41.1061L26.0162 39.6493H22.425L21.8006 41.1181C21.7456 41.2712 21.6579 41.3899 21.5427 41.4741C21.4257 41.5601 21.3001 41.6014 21.1626 41.6014C20.9458 41.6014 20.7876 41.5412 20.6827 41.4208C20.5761 41.3004 20.5245 41.1525 20.5245 40.9754C20.5245 40.9031 20.5365 40.8257 20.5606 40.7466L23.5584 33.5471C23.622 33.3871 23.7218 33.2633 23.8525 33.1738C23.9849 33.0861 24.1277 33.05 24.2808 33.0655C24.4252 33.0655 24.5594 33.1085 24.6832 33.1928ZM33.3808 33.5488C33.5167 33.2443 33.7386 33.0913 34.043 33.0913C34.2442 33.0913 34.4197 33.1584 34.5658 33.2873C34.7138 33.4198 34.7894 33.5866 34.7894 33.7878C34.7894 33.8928 34.7636 34.0011 34.7172 34.1129L31.7435 41.0717C31.6712 41.2334 31.568 41.352 31.4356 41.4277C31.3032 41.5034 31.169 41.5412 31.0331 41.5412C30.9059 41.5326 30.7803 41.4896 30.6599 41.4139C30.5395 41.3383 30.4467 41.2282 30.383 41.0837L27.4093 34.1009C27.3852 34.0544 27.3697 34.0028 27.3611 33.9512C27.3525 33.8996 27.3491 33.8498 27.3491 33.8016C27.3491 33.5677 27.4316 33.3888 27.6002 33.265C27.7687 33.1412 27.9287 33.0792 28.0818 33.0792C28.3879 33.0792 28.6081 33.2357 28.7439 33.5488L31.1639 39.2365L33.3808 33.5488Z" fill="#FF0000"/>
<path d="M23.0132 38.2699L24.212 35.4527L25.4211 38.2699H23.0132Z" fill="#FF0000"/>
</svg>
